<svg xmlns="http://www.w3.org/2000/svg" viewBox="0 0 700 700"><path d="M56 56h588v588H56zm28 28v84h84V84zm112 0v84h77V84zm119 0v84h77V84zm105 0v84h84V84zm112 0v84h84V84zM84 196v77h84v-77zm112 0v77h77v-77zm119 0v77h77v-77zm105 0v77h84v-77zm112 0v77h84v-77zM84 315v77h84v-77zm112 0v77h77v-77zm119 0v77h77v-77zm105 0v77h84v-77zm112 0v77h84v-77zM84 420v84h84v-84zm112 0v84h77v-84zm119 0v84h77v-84zm105 0v84h84v-84zm112 0v84h84v-84zM84 532v84h84v-84zm112 0v84h77v-84zm119 0v84h77v-84zm105 0v84h84v-84zm112 0v84h84v-84z"/></svg>